# MagicaVoxel @ Ephtracy

# group
o 

# material
mtllib eescola.mtl
usemtl palette

# normals
vn -1 0 0
vn 1 0 0
vn 0 0 1
vn 0 0 -1
vn 0 -1 0
vn 0 1 0

# texcoords
vt 0.0332031 0.5
vt 0.849609 0.5

# verts
v 0 0.4 0
v 0 0.4 -0.8
v 0 0.9 0
v 0 0.9 -0.8
v 0 1 0
v 0 1 -0.8
v 0.1 1 0
v 0.1 1 -0.8
v 0.1 1.1 0
v 0.1 1.1 -0.8
v 0.2 1.1 0
v 0.2 1.1 -0.8
v 0.2 1.2 0
v 0.2 1.2 -0.8
v 0.7 0.4 -0.1
v 0.7 0.4 -0.3
v 0.7 0.4 -0.4
v 0.7 0.4 -0.7
v 0.7 0.6 -0.3
v 0.7 0.6 -0.4
v 0.7 0.8 -0.1
v 0.7 0.8 -0.7
v 0.1 0.4 -0.1
v 0.1 0.4 -0.7
v 0.1 0.8 -0.1
v 0.1 0.8 -0.7
v 0.6 1.1 0
v 0.6 1.1 -0.8
v 0.6 1.2 0
v 0.6 1.2 -0.8
v 0.7 1 0
v 0.7 1 -0.8
v 0.7 1.1 0
v 0.7 1.1 -0.8
v 0.8 0.4 0
v 0.8 0.4 -0.3
v 0.8 0.4 -0.4
v 0.8 0.4 -0.8
v 0.8 0.6 -0.3
v 0.8 0.6 -0.4
v 0.8 0.9 0
v 0.8 0.9 -0.8
v 0.8 1 0
v 0.8 1 -0.8
v 0 0.4 0
v 0 0.9 0
v 0 1 0
v 0.1 1 0
v 0.1 1.1 0
v 0.2 1.1 0
v 0.2 1.2 0
v 0.6 1.1 0
v 0.6 1.2 0
v 0.7 1 0
v 0.7 1.1 0
v 0.8 0.4 0
v 0.8 0.9 0
v 0.8 1 0
v 0.7 0.4 -0.4
v 0.7 0.6 -0.4
v 0.8 0.4 -0.4
v 0.8 0.6 -0.4
v 0.1 0.4 -0.7
v 0.1 0.8 -0.7
v 0.7 0.4 -0.7
v 0.7 0.8 -0.7
v 0.1 0.4 -0.1
v 0.1 0.8 -0.1
v 0.7 0.4 -0.1
v 0.7 0.8 -0.1
v 0.7 0.4 -0.3
v 0.7 0.6 -0.3
v 0.8 0.4 -0.3
v 0.8 0.6 -0.3
v 0 0.4 -0.8
v 0 0.9 -0.8
v 0 1 -0.8
v 0.1 1 -0.8
v 0.1 1.1 -0.8
v 0.2 1.1 -0.8
v 0.2 1.2 -0.8
v 0.6 1.1 -0.8
v 0.6 1.2 -0.8
v 0.7 1 -0.8
v 0.7 1.1 -0.8
v 0.8 0.4 -0.8
v 0.8 0.9 -0.8
v 0.8 1 -0.8
v 0 0.4 0
v 0.8 0.4 0
v 0.1 0.4 -0.1
v 0.7 0.4 -0.1
v 0.7 0.4 -0.3
v 0.8 0.4 -0.3
v 0.7 0.4 -0.4
v 0.8 0.4 -0.4
v 0.1 0.4 -0.7
v 0.7 0.4 -0.7
v 0 0.4 -0.8
v 0.8 0.4 -0.8
v 0.7 0.6 -0.3
v 0.8 0.6 -0.3
v 0.7 0.6 -0.4
v 0.8 0.6 -0.4
v 0.1 0.8 -0.1
v 0.7 0.8 -0.1
v 0.1 0.8 -0.7
v 0.7 0.8 -0.7
v 0 1 0
v 0.1 1 0
v 0.7 1 0
v 0.8 1 0
v 0 1 -0.8
v 0.1 1 -0.8
v 0.7 1 -0.8
v 0.8 1 -0.8
v 0.1 1.1 0
v 0.2 1.1 0
v 0.6 1.1 0
v 0.7 1.1 0
v 0.1 1.1 -0.8
v 0.2 1.1 -0.8
v 0.6 1.1 -0.8
v 0.7 1.1 -0.8
v 0.2 1.2 0
v 0.6 1.2 0
v 0.2 1.2 -0.8
v 0.6 1.2 -0.8

# faces
f 3/1/1 2/1/1 1/1/1
f 4/1/1 2/1/1 3/1/1
f 5/2/1 4/2/1 3/2/1
f 6/2/1 4/2/1 5/2/1
f 9/2/1 8/2/1 7/2/1
f 10/2/1 8/2/1 9/2/1
f 13/2/1 12/2/1 11/2/1
f 14/2/1 12/2/1 13/2/1
f 19/1/1 16/1/1 15/1/1
f 20/1/1 18/1/1 17/1/1
f 21/1/1 19/1/1 15/1/1
f 21/1/1 20/1/1 19/1/1
f 22/1/1 18/1/1 20/1/1
f 22/1/1 20/1/1 21/1/1
f 23/1/2 24/1/2 25/1/2
f 25/1/2 24/1/2 26/1/2
f 27/2/2 28/2/2 29/2/2
f 29/2/2 28/2/2 30/2/2
f 31/2/2 32/2/2 33/2/2
f 33/2/2 32/2/2 34/2/2
f 35/1/2 36/1/2 39/1/2
f 37/1/2 38/1/2 40/1/2
f 35/1/2 39/1/2 41/1/2
f 39/1/2 40/1/2 41/1/2
f 40/1/2 38/1/2 42/1/2
f 41/1/2 40/1/2 42/1/2
f 41/2/2 42/2/2 43/2/2
f 43/2/2 42/2/2 44/2/2
f 48/2/3 47/2/3 46/2/3
f 50/2/3 49/2/3 48/2/3
f 52/2/3 50/2/3 48/2/3
f 52/2/3 51/2/3 50/2/3
f 53/2/3 51/2/3 52/2/3
f 54/2/3 48/2/3 46/2/3
f 54/2/3 52/2/3 48/2/3
f 55/2/3 52/2/3 54/2/3
f 56/1/3 46/1/3 45/1/3
f 57/2/3 54/2/3 46/2/3
f 57/1/3 46/1/3 56/1/3
f 58/2/3 54/2/3 57/2/3
f 61/1/3 60/1/3 59/1/3
f 62/1/3 60/1/3 61/1/3
f 65/1/3 64/1/3 63/1/3
f 66/1/3 64/1/3 65/1/3
f 67/1/4 68/1/4 69/1/4
f 69/1/4 68/1/4 70/1/4
f 71/1/4 72/1/4 73/1/4
f 73/1/4 72/1/4 74/1/4
f 76/2/4 77/2/4 78/2/4
f 78/2/4 79/2/4 80/2/4
f 78/2/4 80/2/4 82/2/4
f 80/2/4 81/2/4 82/2/4
f 82/2/4 81/2/4 83/2/4
f 76/2/4 78/2/4 84/2/4
f 78/2/4 82/2/4 84/2/4
f 84/2/4 82/2/4 85/2/4
f 75/1/4 76/1/4 86/1/4
f 76/2/4 84/2/4 87/2/4
f 86/1/4 76/1/4 87/1/4
f 87/2/4 84/2/4 88/2/4
f 91/1/5 90/1/5 89/1/5
f 92/1/5 90/1/5 91/1/5
f 93/1/5 90/1/5 92/1/5
f 94/1/5 90/1/5 93/1/5
f 97/1/5 91/1/5 89/1/5
f 98/1/5 96/1/5 95/1/5
f 99/1/5 97/1/5 89/1/5
f 99/1/5 98/1/5 97/1/5
f 100/1/5 96/1/5 98/1/5
f 100/1/5 98/1/5 99/1/5
f 103/1/5 102/1/5 101/1/5
f 104/1/5 102/1/5 103/1/5
f 107/1/5 106/1/5 105/1/5
f 108/1/5 106/1/5 107/1/5
f 109/2/6 110/2/6 113/2/6
f 113/2/6 110/2/6 114/2/6
f 111/2/6 112/2/6 115/2/6
f 115/2/6 112/2/6 116/2/6
f 117/2/6 118/2/6 121/2/6
f 121/2/6 118/2/6 122/2/6
f 119/2/6 120/2/6 123/2/6
f 123/2/6 120/2/6 124/2/6
f 125/2/6 126/2/6 127/2/6
f 127/2/6 126/2/6 128/2/6
